# xmcd CD database file
#
# Track frame offsets:
#	150
#	45900
#	64272
#	103085
#	138122
#	171125
#	195562
#	225605
#
# Disc length: 3445 seconds
#
# Revision: 0
# Processed by: cddbd v1.5.1PL0 Copyright (c) Steve Scherf et al.
# Submitted via: CDex 1.51
#
DISCID=620d7308
DTITLE=Clifford Brown - In Concert!
DYEAR=1989
DGENRE=Jazz
TTITLE0=Jor-Du
TTITLE1=I Can't Get Started
TTITLE2=I Get A Kick Out Of You
TTITLE3=Parisian Thoroughfare
TTITLE4=All God's Chillun Got Rhythm
TTITLE5=Tenderly
TTITLE6=Sunset Eyes
TTITLE7=Clifford's Axe
EXTD=YEAR: 1989
EXTT0=
EXTT1=
EXTT2=
EXTT3=
EXTT4=
EXTT5=
EXTT6=
EXTT7=
PLAYORDER=
